<?xml version="1.0" standalone="yes"?>
<svg xmlns="http://www.w3.org/2000/svg" width="100" height="100">
<path style="fill:#ffffff; stroke:none;" d="M0 0L0 44C2.29199 38.9051 2.80188 33.1049 5.37732 28C12.4331 14.0143 28.0291 1.72977 44 1C39.5313 -0.87516 33.8087 0 29 0L0 0z"/>
<path style="fill:#f239bb; stroke:none;" d="M44 0.428238C36.1041 1.56196 28.5833 3.9698 22 8.57022C-12.2599 32.5109 -4.25058 88.8051 38 98.5718C43.8759 99.93 49.9913 100.491 56 99.7106C63.3792 98.7517 70.7902 96.4035 77 92.25C106.218 72.7076 107.566 29.9898 79 9.15895C73.8933 5.43504 68.1502 2.95797 62 1.50308C56.1156 0.111061 50.0003 -0.433311 44 0.428238z"/>
<path style="fill:#ffffff; stroke:none;" d="M56 0C61.0947 2.2919 66.8931 2.80711 72 5.37731C85.9096 12.3777 97.7111 27.2408 99 43C100.769 38.7849 100 33.5355 100 29L100 0L56 0z"/>
<path style="fill:#000000; stroke:none;" d="M44 5.43904C37.1988 6.5013 30.7423 8.73542 25 12.598C19.7747 16.1128 15.2716 20.7206 11.8356 26C-8.89833 57.8579 20.099 100.372 57 94.561C63.3909 93.5546 69.672 91.2532 75 87.5571C106.461 65.732 98.7115 14.58 60 6.21142C54.7095 5.06773 49.3777 4.59911 44 5.43904z"/>
<path style="fill:#fff200; stroke:none;" d="M43.662 12.0085C41.89 13.4955 43.5135 15.1988 45.1528 15.6829C47.8656 16.484 55.0416 16.9186 57.338 14.9915C59.11 13.5045 57.4865 11.8012 55.8472 11.3171C53.1344 10.516 45.9584 10.0814 43.662 12.0085M49 25.1759C42.8087 27.3086 36.508 36.4008 32.0046 41C30.2279 42.8145 27.2068 45.1899 27.2068 48C27.2068 50.8101 30.2279 53.1855 32.0046 55C36.2617 59.3476 40.4906 63.8548 45 67.9406C46.9472 69.7048 49.1719 71.7982 52 70.8241C58.2836 68.6596 64.2741 59.6217 68.9846 55.0895C70.8766 53.2691 74.2633 50.9783 73.963 47.9606C73.6841 45.1583 70.8228 42.8656 68.9954 41C64.7373 36.6531 60.5095 32.1453 56 28.0594C54.0528 26.2952 51.8281 24.2018 49 25.1759z"/>
<path style="fill:#000000; stroke:none;" d="M50 30C46.0069 33.9931 41.909 37.9057 38.0201 42C36.4981 43.6023 34.2068 45.5779 34.2068 48C34.2068 50.4221 36.4981 52.3977 38.0201 54C41.909 58.0943 46.0069 62.0069 50 66C56.9831 61.081 62.0169 53.919 69 49C64.0627 41.9909 57.0091 34.9373 50 30z"/>
<path style="fill:#ffffff; stroke:none;" d="M0 57L0 100L43 100C38.5775 97.8705 33.5151 97.2467 29 95.1096C19.7292 90.7216 11.6772 82.7734 6.47531 74C3.28483 68.619 2.63691 62.4763 0 57M99 57C97.3091 77.6736 77.6737 97.3091 57 99C61.2151 100.769 66.4645 100 71 100L100 100L100 71C100 66.4645 100.769 61.2151 99 57z"/>
<path style="fill:#fff200; stroke:none;" d="M42.662 81.0085C40.89 82.4955 42.5135 84.1988 44.1528 84.6829C46.8656 85.484 54.0416 85.9186 56.338 83.9915C58.1099 82.5045 56.4866 80.8012 54.8472 80.3171C52.1344 79.516 44.9584 79.0814 42.662 81.0085z"/>
</svg>
